<mxfile host="app.diagrams.net" modified="2024-04-01T23:36:51.846Z" agent="Mozilla/5.0 (Windows NT 10.0; Win64; x64) AppleWebKit/537.36 (KHTML, like Gecko) Chrome/123.0.0.0 Safari/537.36" etag="eKWEgqkTOTzpIR6aqewp" version="24.2.1" type="github">
  <diagram name="페이지-1" id="LkKAR9_SpMBTQ6YnuUfW">
    <mxGraphModel dx="989" dy="514" grid="1" gridSize="10" guides="1" tooltips="1" connect="1" arrows="1" fold="1" page="1" pageScale="1" pageWidth="827" pageHeight="1169" math="0" shadow="0">
      <root>
        <mxCell id="0" />
        <mxCell id="1" parent="0" />
        <mxCell id="0VdUfWVQp8YhdndEUQRN-17" value="" style="endArrow=classic;html=1;rounded=0;" edge="1" parent="1">
          <mxGeometry width="50" height="50" relative="1" as="geometry">
            <mxPoint x="170" y="75" as="sourcePoint" />
            <mxPoint x="240" y="75" as="targetPoint" />
          </mxGeometry>
        </mxCell>
        <mxCell id="0VdUfWVQp8YhdndEUQRN-18" value="" style="endArrow=classic;html=1;rounded=0;" edge="1" parent="1">
          <mxGeometry width="50" height="50" relative="1" as="geometry">
            <mxPoint x="170" y="104.66" as="sourcePoint" />
            <mxPoint x="240" y="104.66" as="targetPoint" />
          </mxGeometry>
        </mxCell>
        <mxCell id="0VdUfWVQp8YhdndEUQRN-25" value="" style="rounded=0;whiteSpace=wrap;html=1;" vertex="1" parent="1">
          <mxGeometry x="80" y="60" width="90" height="60" as="geometry" />
        </mxCell>
        <mxCell id="0VdUfWVQp8YhdndEUQRN-26" value="설정 파일" style="text;strokeColor=none;fillColor=none;align=center;verticalAlign=middle;spacingLeft=4;spacingRight=4;overflow=hidden;points=[[0,0.5],[1,0.5]];portConstraint=eastwest;rotatable=0;whiteSpace=wrap;html=1;" vertex="1" parent="1">
          <mxGeometry x="80" y="60" width="90" height="30" as="geometry" />
        </mxCell>
        <mxCell id="0VdUfWVQp8YhdndEUQRN-27" value="정책 파일" style="text;strokeColor=none;fillColor=none;align=center;verticalAlign=middle;spacingLeft=4;spacingRight=4;overflow=hidden;points=[[0,0.5],[1,0.5]];portConstraint=eastwest;rotatable=0;whiteSpace=wrap;html=1;" vertex="1" parent="1">
          <mxGeometry x="80" y="90" width="90" height="30" as="geometry" />
        </mxCell>
        <mxCell id="0VdUfWVQp8YhdndEUQRN-33" value="Main Thread" style="swimlane;whiteSpace=wrap;html=1;" vertex="1" parent="1">
          <mxGeometry x="240" y="30" width="200" height="180" as="geometry" />
        </mxCell>
        <mxCell id="0VdUfWVQp8YhdndEUQRN-34" value="readConfig();" style="text;strokeColor=none;fillColor=none;align=left;verticalAlign=middle;spacingLeft=4;spacingRight=4;overflow=hidden;points=[[0,0.5],[1,0.5]];portConstraint=eastwest;rotatable=0;whiteSpace=wrap;html=1;" vertex="1" parent="0VdUfWVQp8YhdndEUQRN-33">
          <mxGeometry y="30" width="200" height="30" as="geometry" />
        </mxCell>
        <mxCell id="0VdUfWVQp8YhdndEUQRN-35" value="readRule();" style="text;strokeColor=none;fillColor=none;align=left;verticalAlign=middle;spacingLeft=4;spacingRight=4;overflow=hidden;points=[[0,0.5],[1,0.5]];portConstraint=eastwest;rotatable=0;whiteSpace=wrap;html=1;" vertex="1" parent="0VdUfWVQp8YhdndEUQRN-33">
          <mxGeometry y="60" width="200" height="30" as="geometry" />
        </mxCell>
        <mxCell id="0VdUfWVQp8YhdndEUQRN-36" value="registerRule();" style="text;strokeColor=none;fillColor=none;align=left;verticalAlign=middle;spacingLeft=4;spacingRight=4;overflow=hidden;points=[[0,0.5],[1,0.5]];portConstraint=eastwest;rotatable=0;whiteSpace=wrap;html=1;" vertex="1" parent="0VdUfWVQp8YhdndEUQRN-33">
          <mxGeometry y="90" width="200" height="30" as="geometry" />
        </mxCell>
        <mxCell id="0VdUfWVQp8YhdndEUQRN-37" value="makeThread();" style="text;strokeColor=none;fillColor=none;align=left;verticalAlign=middle;spacingLeft=4;spacingRight=4;overflow=hidden;points=[[0,0.5],[1,0.5]];portConstraint=eastwest;rotatable=0;whiteSpace=wrap;html=1;" vertex="1" parent="0VdUfWVQp8YhdndEUQRN-33">
          <mxGeometry y="120" width="200" height="30" as="geometry" />
        </mxCell>
        <mxCell id="0VdUfWVQp8YhdndEUQRN-45" value="getSignal();" style="text;strokeColor=none;fillColor=none;align=left;verticalAlign=middle;spacingLeft=4;spacingRight=4;overflow=hidden;points=[[0,0.5],[1,0.5]];portConstraint=eastwest;rotatable=0;whiteSpace=wrap;html=1;" vertex="1" parent="0VdUfWVQp8YhdndEUQRN-33">
          <mxGeometry y="150" width="200" height="30" as="geometry" />
        </mxCell>
        <mxCell id="0VdUfWVQp8YhdndEUQRN-41" value="Read Thread()" style="swimlane;whiteSpace=wrap;html=1;" vertex="1" parent="1">
          <mxGeometry x="240" y="290" width="200" height="120" as="geometry" />
        </mxCell>
        <mxCell id="0VdUfWVQp8YhdndEUQRN-42" value="readPacketFile();" style="text;strokeColor=none;fillColor=none;align=left;verticalAlign=middle;spacingLeft=4;spacingRight=4;overflow=hidden;points=[[0,0.5],[1,0.5]];portConstraint=eastwest;rotatable=0;whiteSpace=wrap;html=1;" vertex="1" parent="0VdUfWVQp8YhdndEUQRN-41">
          <mxGeometry y="30" width="200" height="30" as="geometry" />
        </mxCell>
        <mxCell id="0VdUfWVQp8YhdndEUQRN-43" value="movePacketFile();" style="text;strokeColor=none;fillColor=none;align=left;verticalAlign=middle;spacingLeft=4;spacingRight=4;overflow=hidden;points=[[0,0.5],[1,0.5]];portConstraint=eastwest;rotatable=0;whiteSpace=wrap;html=1;" vertex="1" parent="0VdUfWVQp8YhdndEUQRN-41">
          <mxGeometry y="60" width="200" height="30" as="geometry" />
        </mxCell>
        <mxCell id="0VdUfWVQp8YhdndEUQRN-44" value="enqueue();" style="text;strokeColor=none;fillColor=none;align=left;verticalAlign=middle;spacingLeft=4;spacingRight=4;overflow=hidden;points=[[0,0.5],[1,0.5]];portConstraint=eastwest;rotatable=0;whiteSpace=wrap;html=1;" vertex="1" parent="0VdUfWVQp8YhdndEUQRN-41">
          <mxGeometry y="90" width="200" height="30" as="geometry" />
        </mxCell>
        <mxCell id="0VdUfWVQp8YhdndEUQRN-46" value="패킷 파일" style="rounded=0;whiteSpace=wrap;html=1;" vertex="1" parent="1">
          <mxGeometry x="90" y="312.5" width="90" height="45" as="geometry" />
        </mxCell>
        <mxCell id="0VdUfWVQp8YhdndEUQRN-47" value="" style="endArrow=classic;html=1;rounded=0;entryX=0;entryY=0.5;entryDx=0;entryDy=0;exitX=1;exitY=0.5;exitDx=0;exitDy=0;" edge="1" parent="1" source="0VdUfWVQp8YhdndEUQRN-46" target="0VdUfWVQp8YhdndEUQRN-42">
          <mxGeometry width="50" height="50" relative="1" as="geometry">
            <mxPoint x="180" y="340" as="sourcePoint" />
            <mxPoint x="230" y="290" as="targetPoint" />
          </mxGeometry>
        </mxCell>
        <mxCell id="0VdUfWVQp8YhdndEUQRN-48" value="" style="endArrow=classic;html=1;rounded=0;" edge="1" parent="1">
          <mxGeometry width="50" height="50" relative="1" as="geometry">
            <mxPoint x="440" y="396" as="sourcePoint" />
            <mxPoint x="500" y="396" as="targetPoint" />
          </mxGeometry>
        </mxCell>
        <mxCell id="0VdUfWVQp8YhdndEUQRN-49" value="원형큐" style="ellipse;whiteSpace=wrap;html=1;aspect=fixed;" vertex="1" parent="1">
          <mxGeometry x="500" y="358" width="80" height="80" as="geometry" />
        </mxCell>
      </root>
    </mxGraphModel>
  </diagram>
</mxfile>
